<svg width="50" height="50" viewBox="0 0 50 50" fill="none" xmlns="http://www.w3.org/2000/svg">
<rect width="50" height="50" rx="7" fill="#1D1D1D"/>
<path d="M11.0534 34V17.992H14.3654L22.5974 29.08L21.4454 31.48V17.992H25.0214V34H22.0934L13.7174 23.056L14.6294 21.304V34H11.0534ZM33.3886 34.36C32.7166 34.36 32.0446 34.312 31.3726 34.216C30.7166 34.136 30.1166 33.984 29.5726 33.76C29.0446 33.52 28.6206 33.2 28.3006 32.8C27.9806 32.384 27.8206 31.848 27.8206 31.192V17.368H31.3246V23.992L30.6526 22.864C30.9406 22.528 31.3086 22.264 31.7566 22.072C32.2046 21.864 32.6606 21.72 33.1246 21.64C33.5886 21.56 33.9726 21.52 34.2766 21.52C36.0686 21.52 37.4286 22.064 38.3566 23.152C39.3006 24.224 39.7726 25.8 39.7726 27.88C39.7726 29.096 39.6126 30.12 39.2926 30.952C38.9726 31.784 38.5246 32.448 37.9486 32.944C37.3726 33.44 36.7006 33.8 35.9326 34.024C35.1646 34.248 34.3166 34.36 33.3886 34.36ZM33.3406 31.384C34.0446 31.384 34.6046 31.248 35.0206 30.976C35.4366 30.688 35.7326 30.296 35.9086 29.8C36.1006 29.304 36.1966 28.736 36.1966 28.096C36.1966 27.184 36.0766 26.456 35.8366 25.912C35.5966 25.368 35.2686 24.976 34.8526 24.736C34.4366 24.496 33.9566 24.376 33.4126 24.376C33.0926 24.376 32.7406 24.416 32.3566 24.496C31.9726 24.576 31.6286 24.704 31.3246 24.88V30.256C31.3246 30.544 31.4126 30.768 31.5886 30.928C31.7646 31.088 32.0046 31.208 32.3086 31.288C32.6286 31.352 32.9726 31.384 33.3406 31.384Z" fill="white"/>
</svg>
