<?xml version="1.0" standalone="no"?>
<!DOCTYPE svg PUBLIC "-//W3C//DTD SVG 1.1//EN" "http://www.w3.org/Graphics/SVG/1.1/DTD/svg11.dtd" >
<svg xmlns="http://www.w3.org/2000/svg">
<metadata>Generated by IcoMoon</metadata>
<defs>
<font id="icomoon" horiz-adv-x="1024">
<font-face units-per-em="1024" ascent="960" descent="-64" />
<missing-glyph horiz-adv-x="1024" />
<glyph unicode="&#x20;" horiz-adv-x="512" d="" />
<glyph unicode="&#xe900;" glyph-name="show" d="M992.718 558.607c-38.504 63.051-87.072 119.37-143.777 166.722l119.422 119.422c16.364 16.944 15.894 43.944-1.050 60.308-16.528 15.964-42.732 15.964-59.26 0l-129.872-130.042c-80.508 47.818-172.548 72.743-266.183 72.079-264.052 0-414.524-180.755-480.718-288.491-41.709-67.461-41.709-152.701 0-220.164 38.504-63.051 87.072-119.37 143.777-166.722l-119.422-119.422c-16.944-16.364-17.414-43.366-1.050-60.308 16.364-16.944 43.366-17.414 60.308-1.050 0.356 0.344 0.706 0.694 1.050 1.050l130.17 130.17c80.408-47.812 172.338-72.777 265.885-72.207 264.052 0 414.524 180.755 480.718 288.491 41.711 67.461 41.711 152.701 0.002 220.164zM256.095 448.524c-0.242 141.098 113.942 255.675 255.039 255.917 53.386 0.092 105.461-16.544 148.907-47.568l-61.929-61.929c-25.998 15.678-55.753 24.035-86.112 24.183-94.221 0-170.603-76.382-170.603-170.603 0.148-30.359 8.505-60.114 24.183-86.112l-61.929-61.929c-30.925 43.17-47.554 94.939-47.556 148.041zM512 192.619c-53.102 0.002-104.871 16.632-148.041 47.556l61.929 61.929c25.998-15.678 55.753-24.035 86.112-24.183 94.221 0 170.603 76.382 170.603 170.603-0.148 30.359-8.505 60.114-24.183 86.112l61.929 61.929c81.996-114.825 55.383-274.382-59.442-356.378-43.446-31.024-95.521-47.66-148.907-47.568z" />
<glyph unicode="&#xe901;" glyph-name="hide" d="M682.603 448c0-94.221-76.381-170.603-170.603-170.603s-170.603 76.381-170.603 170.603c0 94.221 76.381 170.603 170.603 170.603s170.603-76.381 170.603-170.603zM992.718 558.081c-66.151 107.736-216.624 288.491-480.718 288.491s-414.566-180.755-480.718-288.491c-41.709-67.461-41.709-152.701 0-220.164 66.151-107.736 216.624-288.491 480.718-288.491s414.566 180.755 480.718 288.491c41.709 67.463 41.709 152.703 0 220.164zM512 192.095c-141.332 0-255.905 114.573-255.905 255.905s114.573 255.905 255.905 255.905 255.905-114.573 255.905-255.905c-0.142-141.274-114.631-255.763-255.905-255.905z" />
<glyph unicode="&#xe902;" glyph-name="checked" d="M466 958c-98.8-9.6-190-46-270-107.6-39-30-89.6-86.4-118.8-132.4-12.6-19.8-37.2-70.2-46-94.2-9.8-26.8-20.4-68-25.6-99.8-6.2-39-6.2-113 0-152 9-55.2 23.2-99.6 47.4-149 26.4-53.8 53.8-92 97.8-136.2 44.2-44 82.4-71.4 136.2-97.8 49.4-24.2 93.8-38.4 149-47.4 39-6.2 113-6.2 152 0 55.2 9 99.6 23.2 149 47.4 53.8 26.4 92 53.8 136.2 97.8 44 44.2 71.4 82.4 97.8 136.2 17.6 35.8 26.4 59.2 36 95.2 12.6 48 15.6 74.2 15.6 129.8s-3 81.8-15.6 129.8c-9.6 36-18.4 59.4-36 95.2-26.4 53.8-53.8 92-97.8 136.2-44.2 44-82.4 71.4-136.2 97.8-49.2 24.2-94.8 38.6-148 47-29.4 4.6-95 6.8-123 4zM779.8 667.6c10-3.2 25.4-18.2 29.6-29.2 4.8-12.8 4.4-29.4-1.2-41-6.4-13-335.6-339.8-350.4-348-14.4-7.6-31.2-7.6-45.6 0.2-8.4 4.4-160 140.2-185.8 166.4-10.2 10.2-15.2 22.6-15 37 0.4 30.2 22.6 50.6 52.6 48.6 7.2-0.6 16-2.4 19.4-4.4 5.4-2.6 106.4-93.6 139.2-125l9.4-9.2 149.6 149.4c82.2 82 152.2 150.6 155.8 152.4 13.8 7 26.2 7.8 42.4 2.8z" />
<glyph unicode="&#xe903;" glyph-name="circle-cancel" d="M512 960c-282.325 0-512-229.675-512-512s229.675-512 512-512 512 229.675 512 512-229.675 512-512 512zM712.832 307.499l-60.331-60.331-140.501 140.501-140.501-140.501-60.331 60.331 140.501 140.501-140.501 140.501 60.331 60.331 140.501-140.501 140.501 140.501 60.331-60.331-140.501-140.501 140.501-140.501z" />
<glyph unicode="&#xe904;" glyph-name="check" d="M330.632 78.394c-29.067-0.012-56.944 11.541-77.48 32.112l-234.248 234.161c-25.205 25.213-25.205 66.084 0 91.297v0c25.213 25.205 66.084 25.205 91.297 0l220.431-220.431 583.167 583.167c25.213 25.205 66.084 25.205 91.297 0v0c25.205-25.213 25.205-66.084 0-91.297l-596.984-596.897c-20.536-20.571-48.413-32.124-77.48-32.112z" />
<glyph unicode="&#xe905;" glyph-name="left" d="M732.587-64c-0.073 0-0.16-0.001-0.247-0.001-11.721 0-22.338 4.726-30.049 12.377l-348.584 348.584c-38.72 38.625-62.675 92.035-62.675 151.040s23.955 112.415 62.67 151.036l348.591 348.591c7.753 7.753 18.463 12.548 30.293 12.548 23.661 0 42.841-19.181 42.841-42.841 0-11.83-4.795-22.541-12.548-30.293l-348.587-348.587c-23.13-23.158-37.434-55.135-37.434-90.453s14.304-67.296 37.435-90.455l348.586-348.586c7.795-7.733 12.621-18.45 12.621-30.293s-4.826-22.56-12.618-30.291l-0.003-0.003c-7.709-7.648-18.326-12.374-30.047-12.374-0.087 0-0.173 0-0.26 0.001h0.013z" />
<glyph unicode="&#xe906;" glyph-name="down" d="M512 227.413c-0.113 0-0.247 0-0.381 0-58.816 0-112.072 23.801-150.663 62.298l-348.583 348.583c-7.753 7.753-12.548 18.463-12.548 30.293 0 23.661 19.181 42.841 42.841 42.841 11.83 0 22.541-4.795 30.293-12.548l348.587-348.587c23.158-23.13 55.135-37.434 90.453-37.434s67.296 14.304 90.455 37.435l348.586 348.586c7.753 7.753 18.463 12.548 30.293 12.548 23.661 0 42.841-19.181 42.841-42.841 0-11.83-4.795-22.541-12.548-30.293l-348.587-348.587c-38.587-38.492-91.843-62.294-150.659-62.294-0.134 0-0.268 0-0.402 0h0.021z" />
<glyph unicode="&#xe907;" glyph-name="neighborhoods" d="M597.333 192h-170.667c-47.061 0-85.333 38.272-85.333 85.333v170.667c0 47.061 38.272 85.333 85.333 85.333h170.667c47.061 0 85.333-38.272 85.333-85.333v-170.667c0-47.061-38.272-85.333-85.333-85.333zM426.667 448v-170.667h170.752l-0.085 170.667h-170.667zM810.667-64h-597.333c-117.632 0-213.333 95.701-213.333 213.333v395.776c0 71.040 35.157 137.173 94.037 176.853l298.624 201.557c72.491 48.896 166.187 48.896 238.677 0l298.667-201.557c58.837-39.68 93.995-105.771 93.995-176.853v-395.776c0-117.632-95.701-213.333-213.333-213.333zM512 874.795c-24.917 0-49.835-7.339-71.595-22.059l-298.667-201.515c-35.328-23.808-56.405-63.445-56.405-106.069v-395.776c0-70.571 57.429-128 128-128h597.333c70.571 0 128 57.429 128 128v395.733c0 42.624-21.077 82.304-56.363 106.069l-298.709 201.557c-21.76 14.72-46.677 22.059-71.595 22.059z" />
<glyph unicode="&#xe908;" glyph-name="burger" d="M42.667 490.667h938.667c23.564 0 42.667-19.103 42.667-42.667s-19.103-42.667-42.667-42.667h-938.667c-23.564 0-42.667 19.103-42.667 42.667s19.103 42.667 42.667 42.667zM42.667 789.333h938.667c23.564 0 42.667-19.103 42.667-42.667s-19.103-42.667-42.667-42.667h-938.667c-23.564 0-42.667 19.103-42.667 42.667s19.103 42.667 42.667 42.667zM42.667 192h938.667c23.564 0 42.667-19.103 42.667-42.667s-19.103-42.667-42.667-42.667h-938.667c-23.564 0-42.667 19.103-42.667 42.667s19.103 42.667 42.667 42.667z" />
<glyph unicode="&#xe90a;" glyph-name="up" d="M963.669 185.685l-421.504 421.504c-7.815 7.509-18.45 12.134-30.165 12.134s-22.351-4.625-30.18-12.148l0.015 0.014-421.248-421.248-60.331 60.331 421.248 421.248c23.489 22.445 55.39 36.259 90.517 36.259s67.029-13.814 90.567-36.306l-0.050 0.047 421.461-421.504z" />
<glyph unicode="&#xe90b;" glyph-name="cities" d="M938.667 484.693c-3.743-0.022-7.452 0.696-10.923 2.112-3.465 1.415-6.616 3.501-9.273 6.137l-358.116 358.4c-4.66 5.441-7.095 12.441-6.818 19.6s3.244 13.95 8.31 19.015c5.066 5.066 11.855 8.034 19.017 8.31 7.157 0.276 14.16-2.159 19.598-6.819l358.4-358.116c4.011-3.978 6.747-9.061 7.856-14.601 1.115-5.539 0.552-11.284-1.616-16.502s-5.837-9.672-10.547-12.796c-4.71-3.123-10.24-4.774-15.889-4.741zM581.404 744.107l-193.138-193.138c-51.414 12.396-105.139 11.484-156.103-2.65s-97.484-41.024-135.169-78.132c-2.666-2.644-4.782-5.79-6.226-9.256s-2.188-7.184-2.188-10.939c0-3.755 0.744-7.473 2.188-10.939s3.56-6.612 6.226-9.256l179.769-180.907-211.627-210.773c-2.978-2.549-5.396-5.689-7.103-9.216s-2.667-7.373-2.818-11.292c-0.151-3.914 0.509-7.822 1.939-11.474 1.43-3.647 3.599-6.963 6.372-9.734 2.772-2.776 6.087-4.944 9.737-6.372 3.65-1.434 7.557-2.094 11.474-1.94s7.761 1.109 11.29 2.816c3.529 1.712 6.667 4.13 9.217 7.105l211.627 211.627 180.053-180.053c2.658-2.634 5.81-4.722 9.276-6.138s7.177-2.133 10.92-2.111c3.764 0.017 7.487 0.779 10.953 2.241 3.467 1.468 6.608 3.607 9.243 6.292 36.972 37.774 63.772 84.298 77.898 135.236 14.126 50.933 15.115 104.613 2.884 156.035l193.138 193.138-229.831 229.831z" />
<glyph unicode="&#xe90c;" glyph-name="publications" horiz-adv-x="1472" d="M1235.2 960h-1056c-102.4 0-179.2-76.8-179.2-179.2v-524.8c0-96 76.8-172.8 179.2-172.8h140.8c0 0 1.926 0 6.4 6.4l44.8 57.6 51.2 64 140.8 192c32 44.8 83.2 70.4 140.8 70.4s108.8-25.6 147.2-70.4l140.8-192 51.2-64 44.8-57.6 6.4-6.4h147.2c96 0 179.2 76.8 179.2 172.8v524.8c-12.8 102.4-89.6 179.2-185.6 179.2zM928 83.2l-102.4 128-83.2 115.199c-6.4 12.8-25.6 19.2-44.8 19.2s-32-6.4-44.8-19.2l-76.799-115.199-102.4-128-51.2-70.4c-12.8-12.8-12.8-32-6.4-51.2 12.8-12.8 32-25.6 51.2-25.6h467.199c19.2 0 38.4 12.8 44.8 25.6 6.4 19.2 6.4 32-6.4 51.2l-44.8 70.4z" />
<glyph unicode="&#xe90d;" glyph-name="markers" d="M172.218 960c-92.816 0-172.218-77.441-172.218-170.666v-114.872c0-99.601 80.603-168.929 168.617-175.135 1.199-0.084 2.4-0.127 3.601-0.127h116.363c92.816 0 172.218 77.441 172.218 170.666v119.467c0 90.598-72.157 170.666-167.564 170.666h-121.018zM735.416 960c-92.815 0-172.216-77.441-172.216-170.666v-119.467c0-93.226 79.401-170.666 172.216-170.666h116.367c92.815 0 172.216 77.441 172.216 170.666v119.467c0 90.598-72.156 170.666-167.562 170.666h-121.021zM172.218 396.8c-92.816 0-172.218-77.44-172.218-170.665v-119.47c0-96.184 81.907-164.424 168.617-170.537 1.199-0.087 2.4-0.128 3.601-0.128h116.363c92.816 0 172.218 77.44 172.218 170.665v119.47c0 90.598-72.157 170.665-167.564 170.665h-121.018zM735.416 396.8c-92.815 0-172.216-77.44-172.216-170.665v-119.47c0-93.225 79.401-170.665 172.216-170.665h116.367c92.815 0 172.216 77.44 172.216 170.665v119.47c0 90.598-72.156 170.665-167.562 170.665h-121.021z" />
<glyph unicode="&#xe90e;" glyph-name="settings" d="M640-64h-256v149.888c-46.797 16.824-87.158 40.657-122.066 70.657l0.509-0.427-129.877-75.051-128 221.867 129.835 74.88c-4.069 21.103-6.396 45.373-6.396 70.187s2.328 49.083 6.777 72.603l-0.38-2.417-129.835 74.88 128 221.867 129.877-75.051c34.4 29.572 74.761 53.406 118.884 69.384l2.673 0.846v149.888h256v-149.888c46.797-16.824 87.158-40.657 122.066-70.657l-0.509 0.427 129.877 75.051 128-221.867-129.835-74.88c4.069-21.103 6.396-45.373 6.396-70.187s-2.328-49.083-6.777-72.603l0.38 2.417 129.835-74.88-128-221.867-129.877 75.008c-34.401-29.556-74.762-53.376-118.883-69.341l-2.674-0.845zM469.333 21.333h85.333v129.152l32.043 8.277c54.604 14.443 101.426 42.402 138.315 80.116l23.221 23.649 111.915-64.64 42.667 73.899-111.787 64.555 8.789 31.829c6.88 23.983 10.837 51.53 10.837 80s-3.957 56.017-11.35 82.12l0.513-2.12-8.789 31.829 111.787 64.555-42.667 73.899-111.915-64.811-23.168 23.424c-36.956 37.705-83.777 65.607-136.289 79.531l-2.079 0.469-32.043 8.448v129.152h-85.333v-129.152l-32.043-8.277c-54.604-14.443-101.426-42.402-138.315-80.116l-23.221-23.649-111.915 64.811-42.667-73.899 111.787-64.555-8.789-31.829c-6.88-23.983-10.837-51.53-10.837-80s3.957-56.017 11.35-82.12l-0.513 2.12 8.789-31.829-111.787-64.555 42.667-73.899 111.915 64.64 23.168-23.595c36.956-37.705 83.777-65.607 136.289-79.531l2.079-0.469 32.043-8.277zM512 277.333c-94.257 0-170.667 76.41-170.667 170.667s76.41 170.667 170.667 170.667c94.257 0 170.667-76.41 170.667-170.667v0c0-94.257-76.41-170.667-170.667-170.667v0zM512 533.333c-47.128 0-85.333-38.205-85.333-85.333s38.205-85.333 85.333-85.333c47.128 0 85.333 38.205 85.333 85.333v0c0 47.128-38.205 85.333-85.333 85.333v0z" />
<glyph unicode="&#xe90f;" glyph-name="memorial-type" d="M512 960c-281.6 0-512-230.4-512-512s230.4-512 512-512c281.6 0 512 230.4 512 512s-230.4 512-512 512zM512 186.88c-143.36 0-261.12 117.76-261.12 261.12 0 25.6 25.6 51.2 51.2 51.2 30.72 0 51.2-25.6 51.2-51.2 0-87.040 71.68-158.72 158.72-158.72s158.72 71.68 158.72 158.72c0 25.6 20.48 51.2 51.2 51.2 25.6 0 51.2-25.6 51.2-51.2 0-143.36-117.76-261.12-261.12-261.12z" />
<glyph unicode="&#xe910;" glyph-name="profile" d="M466 958c-98.8-9.6-190-46-270-107.6-39-30-89.6-86.4-118.8-132.4-12.6-19.8-37.2-70.2-46-94.2-9.8-26.8-20.4-68-25.6-99.8-6.2-39-6.2-113 0-152 9-55.2 23.2-99.6 47.4-149 26.4-53.8 53.8-92 97.8-136.2 44.2-44 82.4-71.4 136.2-97.8 49.4-24.2 93.8-38.4 149-47.4 39-6.2 113-6.2 152 0 55.2 9 99.6 23.2 149 47.4 53.8 26.4 92 53.8 136.2 97.8 44 44.2 71.6 82.6 97.8 136.2 17.6 36.2 26.6 59.6 36 95.2 12.6 48 15.6 74.2 15.6 129.8s-3 81.8-15.6 129.8c-9.6 36-18.4 59.4-36 95.2-26.4 53.8-53.8 92-97.8 136.2-44.2 44-82.4 71.4-136.2 97.8-49.2 24.2-94.8 38.6-148 47-29.4 4.6-95 6.8-123 4zM572 888.8c95.2-12.2 184.2-56.6 254.2-126.6 70.2-70.2 113.4-157 127-255.2 4.2-31.8 4.2-86.4-0.2-118-11.4-83-46-161.4-99.2-225.4-6.8-8-12.8-14.8-13.6-15-0.6-0.4-5 6.2-9.8 14.6-15.8 27.6-32.8 49.6-59.2 76-31.8 31.6-58 50.6-96.8 70l-28.6 14.2 11.2 8.6c33.6 26 64 70 77.8 113 29.4 92.6-4 197-82 255.6-84.4 63.4-197.2 63.4-281.6 0-97.6-73.2-121.4-211.4-54.2-313.4 12.6-19.4 34-42.8 50-55.2l11.2-8.6-28.6-14.2c-38.8-19.4-65-38.4-96.8-70-26.4-26.6-44.2-49.4-59.2-76.4-4.6-8.2-9-14.6-9.8-14.4-2.4 1.2-23.4 26.8-35.2 43.6-40.8 57.8-68 126.4-77.6 197-4.4 31.6-4.4 86.2-0.2 118 13.6 98.2 56.8 185 127 255.2 48.6 48.4 104.2 83.8 166.2 105.4 68.6 23.8 134.8 30.6 208 21.2zM556.8 675c46.8-13.6 84.8-45.2 105-87.6 11.2-23.2 14.4-36.6 15.6-66.4 0.8-22 0.4-28.8-3.2-43.4-14.2-59.8-56.6-105-115.2-122.8-16-5-21-5.6-47-5.6s-31 0.6-47 5.6c-58.6 17.8-101 63-115.2 122.8-3.6 14.6-4 21.4-3.2 43.4 1.2 29.6 4.4 43.2 15.4 66.2 23.6 48.8 71.6 84.2 126.6 93 17.8 2.8 48.8 0.4 68.2-5.2zM539.2 279.2c32.8-2 73.8-13.6 107-30.4 56.8-28.4 105.8-77.2 134.2-133.6l8-15.8-4.8-3.8c-45.4-35.6-116.2-68.8-174.4-81.8-60.6-13.4-133.8-13.4-194.4 0-58.2 13-129 46.2-174.4 81.8l-4.8 3.8 8 15.8c21.2 42 60.2 86.8 97.4 112.2 33.6 22.6 73.8 39.8 112 47.6 16.2 3.4 53.2 6.6 64 5.6 3.4-0.2 13.2-0.8 22.2-1.4z" />
<glyph unicode="&#xe911;" glyph-name="refresh" d="M512 874.667c118.99-0.403 226.483-49.296 303.814-127.941l0.058-0.059h-133.205c-23.564 0-42.667-19.103-42.667-42.667v0 0c0-23.564 19.103-42.667 42.667-42.667v0h176.768c43.749 0.024 79.208 35.483 79.232 79.23v176.77c0 23.564-19.103 42.667-42.667 42.667v0 0c-23.564 0-42.667-19.103-42.667-42.667v0-88.661c-90.199 81.482-210.324 131.34-342.095 131.34-266.087 0-484.691-203.302-508.952-463.049l-0.153-2.030c-0.117-1.189-0.184-2.571-0.184-3.968 0-23.689 19.171-42.9 42.844-42.965h0.006c0.159-0.002 0.346-0.003 0.534-0.003 21.578 0 39.346 16.312 41.647 37.277l0.017 0.187c20.152 218.827 202.668 388.903 424.972 389.205h0.031zM979.243 448c-0.159 0.002-0.346 0.003-0.534 0.003-21.578 0-39.346-16.312-41.647-37.277l-0.017-0.187c-19.58-218.906-202.138-389.201-424.471-389.201-119.24 0-227.040 48.983-304.375 127.924l-0.071 0.072h133.205c23.564 0 42.667 19.103 42.667 42.667v0 0c0 23.564-19.103 42.667-42.667 42.667v0h-176.768c-0.013 0-0.028 0-0.043 0-43.735 0-79.189-35.454-79.189-79.189 0-0.015 0-0.030 0-0.045v0.002-176.768c0-23.564 19.103-42.667 42.667-42.667v0 0c23.564 0 42.667 19.103 42.667 42.667v0 88.661c90.199-81.482 210.324-131.34 342.095-131.34 266.087 0 484.691 203.302 508.952 463.049l0.153 2.030c0.117 1.189 0.184 2.571 0.184 3.968 0 23.689-19.171 42.9-42.844 42.965h-0.006z" />
<glyph unicode="&#xe912;" glyph-name="logout" d="M494.8 955c-5.6-2.8-11.8-8-14.8-12.4l-5-7.4-0.6-223.6c-0.4-219.6-0.4-223.8 3.6-231.4 13.6-27 54.6-26.8 67.8 0.4l4.2 8.8-0.4 223-0.6 223.2-6.2 7.8c-7.2 9.2-21 16.6-30.8 16.6-4 0-11.6-2.2-17.2-5zM202.6 715.8c-13.4-6.6-43.6-41-68-77.2-15.8-23.8-42-76.8-50.4-102.2-8-24.2-15.2-53-19.2-76.4-4.4-26-6.2-87.6-3.2-116.2 12.4-119.2 69.4-226.8 160.8-303.2 121.4-101.4 290.2-131.6 440.4-78.4 63.2 22.2 115 54.6 164.8 102.8 76.4 74.2 123.2 171.2 134.4 278.8 3 28.4 1.2 90.2-3.2 116.2-10.2 60.6-31.4 117.2-63 168.2-19.6 31.6-56 75.8-70 85-19.8 13.2-46.4 5.4-56.2-16.2-7.8-17-4.2-29.6 14.4-50.2 69.4-77 102.2-160 102.2-257.8 0-74.2-17.8-137-56.6-199.4-67.6-109-188-175.6-317.8-175.6-186.8 0-342.4 134.2-371 320-4 25.2-4.4 80-1 103 11.6 78.4 41.8 144 92.4 201.4 18.4 20.6 25.4 32.4 25.6 41.6 0.2 29-30 48.4-55.4 35.8z" />
<glyph unicode="&#xe913;" glyph-name="up1" d="M487.761 742.906c-9.595-4.397-41.779-35.783-245.079-239.283-224.491-224.49-234.486-234.685-238.484-245.88-5.397-14.592-5.397-26.188 0.2-40.78 3.398-9.595 7.996-15.393 27.387-34.783 28.586-28.786 35.383-32.584 57.172-32.784 11.594 0 18.191 1 23.988 3.799 5.397 2.598 70.966 66.567 203.501 198.902l195.304 195.106 195.505-195.305c107.348-107.348 198.503-196.704 202.302-198.702 3.798-1.799 13.393-3.799 21.189-4.399 21.99-1.399 31.984 3.999 60.971 33.185 19.39 19.589 23.787 25.387 27.386 34.982 5.397 14.393 5.598 26.188 0.4 39.78-3.598 9.796-23.389 30.186-240.283 246.88-184.71 184.51-238.483 237.285-245.48 240.283-13.194 5.997-31.784 5.597-45.978-1z" />
<glyph unicode="&#xe914;" glyph-name="down1" d="M535.738 153.593c9.595 4.399 41.78 35.783 245.081 239.283 224.49 224.491 234.486 234.686 238.484 245.88 5.397 14.594 5.397 26.188-0.201 40.78-3.397 9.595-7.996 15.393-27.386 34.783-28.587 28.786-35.383 32.585-57.173 32.784-11.594 0-18.191-1-23.988-3.798-5.397-2.6-70.965-66.567-203.5-198.903l-195.305-195.104-195.505 195.304c-107.348 107.348-198.502 196.704-202.301 198.704-3.798 1.799-13.394 3.798-21.19 4.397-21.989 1.399-31.984-3.999-60.97-33.183-19.391-19.591-23.788-25.389-27.387-34.984-5.397-14.393-5.597-26.186-0.4-39.78 3.598-9.795 23.389-30.185 240.282-246.88 184.71-184.509 238.484-237.283 245.481-240.282 13.194-5.997 31.784-5.598 45.977 0.999z" />
<glyph unicode="&#xe915;" glyph-name="menu" d="M42.667 490.667h938.667c23.564 0 42.667-19.103 42.667-42.667s-19.103-42.667-42.667-42.667h-938.667c-23.564 0-42.667 19.103-42.667 42.667s19.103 42.667 42.667 42.667zM42.667 789.333h938.667c23.564 0 42.667-19.103 42.667-42.667s-19.103-42.667-42.667-42.667h-938.667c-23.564 0-42.667 19.103-42.667 42.667s19.103 42.667 42.667 42.667zM42.667 192h938.667c23.564 0 42.667-19.103 42.667-42.667s-19.103-42.667-42.667-42.667h-938.667c-23.564 0-42.667 19.103-42.667 42.667s19.103 42.667 42.667 42.667z" />
<glyph unicode="&#xe916;" glyph-name="left1" d="M217.094 424.262c4.397-9.595 35.783-41.78 239.283-245.081 224.49-224.49 234.685-234.486 245.88-238.484 14.592-5.397 26.188-5.397 40.78 0.201 9.595 3.397 15.393 7.996 34.783 27.386 28.786 28.587 32.584 35.383 32.784 57.173 0 11.594-1 18.191-3.799 23.988-2.598 5.397-66.567 70.965-198.902 203.5l-195.106 195.305 195.305 195.505c107.348 107.348 196.704 198.502 198.702 202.301 1.799 3.798 3.799 13.394 4.399 21.19 1.399 21.989-3.999 31.984-33.185 60.97-19.589 19.391-25.387 23.788-34.982 27.387-14.393 5.397-26.188 5.597-39.78 0.4-9.796-3.598-30.186-23.389-246.88-240.282-184.51-184.71-237.285-238.484-240.283-245.481-5.997-13.194-5.597-31.784 1-45.977z" />
<glyph unicode="&#xe917;" glyph-name="right" d="M806.407 472.239c-4.399 9.595-35.783 41.78-239.283 245.081-224.491 224.49-234.686 234.485-245.88 238.483-14.594 5.397-26.188 5.397-40.78-0.2-9.595-3.398-15.393-7.996-34.783-27.387-28.786-28.586-32.585-35.383-32.784-57.172 0-11.594 1-18.191 3.798-23.988 2.6-5.397 66.567-70.965 198.903-203.5l195.104-195.305-195.304-195.505c-107.348-107.348-196.704-198.503-198.704-202.301-1.799-3.799-3.798-13.394-4.397-21.191-1.399-21.988 3.999-31.984 33.183-60.969 19.591-19.392 25.389-23.789 34.984-27.387 14.393-5.397 26.186-5.597 39.78-0.4 9.795 3.598 30.185 23.389 246.88 240.283 184.509 184.71 237.283 238.484 240.282 245.48 5.997 13.194 5.598 31.784-0.999 45.978z" />
<glyph unicode="&#xe918;" glyph-name="plus" d="M981.333 490.667h-426.667v426.667c0 23.564-19.103 42.667-42.667 42.667v0 0c-23.564 0-42.667-19.103-42.667-42.667v0-426.667h-426.667c-23.564 0-42.667-19.103-42.667-42.667v0 0c0-23.564 19.103-42.667 42.667-42.667v0h426.667v-426.667c0-23.564 19.103-42.667 42.667-42.667v0 0c23.564 0 42.667 19.103 42.667 42.667v0 426.667h426.667c23.564 0 42.667 19.103 42.667 42.667v0 0c0 23.564-19.103 42.667-42.667 42.667v0z" />
<glyph unicode="&#xe919;" glyph-name="cross" d="M572.332 448.257l439.176 439.176c16.37 16.948 15.902 43.961-1.046 60.331-16.534 15.97-42.751 15.97-59.285 0l-439.178-439.176-439.176 439.176c-16.95 16.37-43.961 15.9-60.331-1.048-15.97-16.534-15.97-42.749 0-59.283l439.176-439.176-439.176-439.176c-16.656-16.662-16.656-43.671 0-60.331v0c16.662-16.656 43.671-16.656 60.331 0l439.176 439.176 439.176-439.176c16.662-16.656 43.671-16.656 60.331 0v0c16.656 16.662 16.656 43.671 0 60.331l-439.174 439.176z" />
<glyph unicode="&#xe91a;" glyph-name="house-big" d="M576 192h-128c-58.837 0-106.667 47.829-106.667 106.667v128c0 58.837 47.829 106.667 106.667 106.667h128c58.837 0 106.667-47.829 106.667-106.667v-128c0-58.837-47.829-106.667-106.667-106.667zM469.333 320h85.333v85.333h-85.333v-85.333zM789.333-64h-554.667c-129.365 0-234.667 105.301-234.667 234.667v367.531c0 78.080 38.656 150.784 103.424 194.517l277.333 187.136c79.659 53.845 182.784 53.845 262.528 0l277.291-187.136c64.768-43.691 103.424-116.437 103.424-194.517v-367.531c0-129.365-105.301-234.667-234.667-234.667zM512 832.128c-20.736 0-41.557-6.144-59.605-18.389l-277.376-187.093c-29.397-19.883-47.019-52.907-47.019-88.405v-367.531c0-58.837 47.829-106.667 106.667-106.667h554.667c58.837 0 106.667 47.829 106.667 106.667v367.488c0 35.499-17.579 68.523-47.019 88.405l-277.333 187.136c-18.133 12.245-38.912 18.389-59.648 18.389z" />
<glyph unicode="&#xe91b;" glyph-name="arrow-right" d="M1004.459 495.275l-201.259 201.259-30.165-30.165 197.035-197.035h-970.069v-42.667h969.984l-196.992-196.992 30.165-30.165 201.301 201.301c26.027 26.027 26.027 68.437 0 94.464z" />
<glyph unicode="&#xe91c;" glyph-name="infinity" d="M768 704c-126.805 0-210.901-95.019-256-165.632-45.099 70.613-129.195 165.632-256 165.632-141.385 0-256-114.615-256-256s114.615-256 256-256v0c126.805 0 210.901 95.019 256 165.632 45.099-70.613 129.195-165.632 256-165.632 141.385 0 256 114.615 256 256s-114.615 256-256 256v0zM256 277.333c-94.257 0-170.667 76.41-170.667 170.667s76.41 170.667 170.667 170.667v0c114.901 0 186.965-125.653 209.067-170.667-21.931-45.227-93.525-170.667-209.067-170.667zM768 277.333c-114.901 0-186.965 125.653-209.067 170.667 21.973 45.141 93.568 170.667 209.067 170.667 94.257 0 170.667-76.41 170.667-170.667s-76.41-170.667-170.667-170.667v0z" />
<glyph unicode="&#xe91d;" glyph-name="menu-dots" d="M170.667 448c0-47.128-38.205-85.333-85.333-85.333s-85.333 38.205-85.333 85.333c0 47.128 38.205 85.333 85.333 85.333s85.333-38.205 85.333-85.333zM597.333 448c0-47.128-38.205-85.333-85.333-85.333s-85.333 38.205-85.333 85.333c0 47.128 38.205 85.333 85.333 85.333s85.333-38.205 85.333-85.333zM1024 448c0-47.128-38.205-85.333-85.333-85.333s-85.333 38.205-85.333 85.333c0 47.128 38.205 85.333 85.333 85.333s85.333-38.205 85.333-85.333z" />
<glyph unicode="&#xe91e;" glyph-name="debts" d="M482.4 956c-21.8-5.8-37.4-14.8-54.4-32-30.2-30-41.6-68.2-33-109 1.6-7.6 3-14.2 3-14.4 0-0.4-20.4-0.6-45.4-0.6-49.8-0.2-66.6-2.2-89.6-10.8-40-15.4-75.8-50.4-90.8-89.2-8.4-21.8-167.6-564.4-170.4-580.8-6-35.2 3.4-78.2 24-109.6 22.8-35 54.4-57.4 97.2-69.2 11-3.2 43.2-3.4 389-3.4s378 0.2 389 3.4c42.8 11.8 74.4 34.2 97.2 69.2 20.6 31.4 30 74.4 24 109.6-2.6 14.8-161.2 556.4-169.8 579.6-14.4 38.8-51 75-91.4 90.4-23 8.6-39.8 10.6-89.4 10.8-25.2 0-45.6 0.2-45.6 0.6 0 0.2 1.4 6.8 3 14.4 5.8 27.8 1.8 56.4-11.4 81.6-8.4 16.2-32.8 40.6-49 49-26.4 13.8-58.2 17.6-86.2 10.4zM534 873.2c11.8-7.8 17-17.8 17-33.2 0-15.6-5.2-25.4-17.6-33.6-11.2-7.4-30.6-7.8-42-0.6-15.2 9.4-22.2 28-17.6 45.8 2.8 10.2 15 23.4 24.6 26.2 10.6 3.2 27 1.2 35.6-4.6zM736.4 712.6c16.8-8 29.4-19.4 37.2-34 4-7.8 33.6-105.4 87.6-288.6 81-274.4 81.8-277.2 81.8-295 0-16-0.8-19.4-6.4-31.4-8.8-18.6-20-30.2-38.2-39.2l-15.2-7.4h-742.2l-13.4 6.4c-18.6 8.8-30.2 20-39.2 38.2-7 14.2-7.4 16.4-7.4 33.2 0 18 0.8 20.8 81.8 295.2 54 183.2 83.6 280.8 87.6 288.6 10 18.6 30.4 34.4 51 39.2 4.4 1 98.2 1.8 214.6 1.6l207-0.4 13.4-6.4zM498.4 645.8c-9-2.6-21.6-16-24.2-25.2-1.2-4.2-2.2-19.2-2.4-33.6v-26l-14.4-6.8c-20-9.4-42-31.6-52.2-52.2-13.2-27-16.4-55.2-9.2-82.8 5.2-20.8 14.4-37.4 29.2-53.2 21.6-22.8 47-34.6 82.4-38 21.4-2 29.8-6 38-18.6 7.4-11.2 7.8-30.6 0.6-42-9.4-15.2-28-22.2-45.8-17.6-5.8 1.6-12 5.8-20.4 14.2-13.4 13.2-23.2 17.2-37.8 15.2-24-3.2-38.8-26.8-32.2-51.2 3.6-13 28.2-37.2 47.4-46.2l14.2-6.8 0.8-30c0.6-27.4 1-30.6 5.4-37.6 2.6-4.2 8.4-10 12.8-13 6.8-4.6 10.4-5.4 21.4-5.4s14.6 0.8 21.4 5.4c4.4 3 10.2 8.8 12.8 13 4.4 7 4.8 10.2 5.6 37.6l0.8 30 14.2 6.8c19.8 9.6 41.8 31.8 52 52.2 13.2 27 16.4 55.2 9.2 82.8-5.2 20.8-14.4 37.4-29.2 53.2-21.8 23-47 34.6-82.6 38-21.4 2-30.6 6.6-38.4 19.4-7.2 11.4-6.8 30.8 0.6 42 6.6 10 16.4 16.2 27.8 17.8 14.6 2 24.4-2 37.8-15.2 13.4-13.4 23.2-17.2 38-15.2 23.8 3.2 38.6 26.8 32 51.2-3.4 13-28 37-47.2 46.2l-14.2 6.8-0.8 30c-0.8 27.4-1.2 30.6-5.6 37.6-9.4 15.2-30.2 22.6-47.8 17.2z" />
<glyph unicode="&#xe91f;" glyph-name="star-filled" d="M503 883c13.578 1.363 25.244-2.637 35-12 41.278-85.224 83.612-169.89 127-254 91.922-13.942 183.922-27.608 276-41 19.148-5.946 27.482-18.946 25-39-1.45-4.898-3.45-9.566-6-14-66.666-65.334-133.334-130.666-200-196 14.226-93.026 29.226-186.026 45-279-0.496-20.834-11.162-32.5-32-35-6.020 1.538-12.020 3.206-18 5-81.016 43.51-162.35 86.51-244 129-81.084-43.402-162.416-86.402-244-129-35.51-9.092-51.844 4.576-49 41 14.666 85.334 29.334 170.666 44 256 1.628 4.804 1.294 9.47-1 14-66.638 64.304-132.971 128.97-199 194-10.336 16.976-8.669 32.642 5 47 4.435 2.55 9.101 4.55 14 6 92.078 13.392 184.078 27.058 276 41 43.388 84.11 85.722 168.776 127 254 5.686 5.325 12.018 9.325 19 12z" />
<glyph unicode="&#xe920;" glyph-name="star" d="M503 883c-6.982-2.675-13.314-6.675-19-12-41.278-85.224-83.612-169.89-127-254-91.922-13.942-183.922-27.608-276-41-5.354-0.498-10.020-2.498-14-6-13.669-14.358-15.336-30.024-5-47 66.667-65.334 133.333-130.666 200-196-13.35-89.44-28.018-178.774-44-268-2.844-36.424 13.49-50.092 49-41 81.584 42.598 162.916 85.598 244 129 81.65-42.49 162.984-85.49 244-129 5.73-1.674 11.396-3.34 17-5 21.266 1.934 32.266 13.6 33 35-14.458 89.080-29.458 178.080-45 267-1.628 4.804-1.294 9.47 1 14 66.638 64.304 132.972 128.97 199 194 2.55 4.434 4.55 9.102 6 14 2.442 20.154-5.892 33.154-25 39-92.068 13.456-184.068 27.124-276 41-43.388 84.11-85.722 168.776-127 254-9.756 9.363-21.422 13.363-35 12zM727 109c-68.56 35.616-137.226 71.282-206 107-6.666 1.334-13.334 1.334-20 0-68.774-35.718-137.44-71.384-206-107 11.464 74.12 23.798 148.12 37 222 1.754 10.088-0.246 19.422-6 28-55 53.666-110 107.334-165 161 75.188 12.074 150.522 23.408 226 34 8.444 2.052 15.444 6.386 21 13 33.612 69.89 68.278 139.224 104 208 34-69.334 68-138.666 102-208 5.556-6.614 12.556-10.948 21-13 75.476-10.592 150.81-21.924 226-34-55-53.666-110-107.334-165-161-5.754-8.578-7.754-17.912-6-28 12.984-73.92 25.318-147.92 37-222z" />
<glyph unicode="&#xe921;" glyph-name="plans" d="M92 892v-68h-52v-60h52v-112h-52v-60h52v-114h-52v-60h52v-114h-52v-60h52v-112h-52v-60h52v-136h892v1024h-892v-68zM924 448v-452h-772l0.4 37.6 0.6 37.4 53 1.2v59.8h-54v111.8l53 1.2 1.2 58.8-53.2 1.2-0.6 56.6-0.4 56.4h54v60h-54l0.4 56.6 0.6 56.4 53.2 1.2-1.2 58.8-53 1.2v111.8h54v59.8l-53 1.2-0.6 37.6-0.4 37.4h772v-452zM435 746l-48-48-45 45-42.2-42.2 43.2-43c23.8-23.4 43.8-42.4 44.6-42s32.4 31.4 70.4 68.6l68.8 67.6-20.8 21c-11.6 11.6-21.4 21-22 21s-22.6-21.6-49-48zM618 696v-30h194v60h-194v-30zM435 494l-48-48-45 45-21.4-21.6-21.6-21.4 43-43c23.6-23.6 43.8-43 45-43s33 31 71 69l69 69-21 21c-11.6 11.6-21.4 21-22 21s-22.6-21.6-49-48zM618 448v-30h194v60h-194v-30zM435 242l-48-48-45 45-21.4-21.6-21.6-21.4 43-43c23.6-23.6 43.8-43 45-43s33 31 71 69l69 69-21 21c-11.6 11.6-21.4 21-22 21s-22.6-21.6-49-48zM618 180v-30h194v60h-194v-30z" />
<glyph unicode="&#xe922;" glyph-name="duty" d="M463 957.8c-94.8-9.2-188.6-46.8-266.8-107.4-22.2-17-69.6-64.4-86.6-86.6-31.6-40.8-62-95.2-78.6-140.6-9.6-26.2-21.6-74.2-26.2-104.2-5.2-33.6-5.2-108.4 0-142 4.6-30.2 16.6-78.2 26.2-104.2 17-46.2 47-100 78.6-140.6 16.2-21 62-67.2 82.4-83.4 41.4-32.6 97.6-64.4 144.8-81.8 26-9.6 74-21.6 104.2-26.2 29.6-4.4 106.4-5.2 134-1.2 96.4 13.8 177.6 48 253 106 20.6 16 66.8 61.8 83.2 82.4 32 40.6 64.8 98.4 81.6 144.2 10.2 27.8 20.6 68.6 25.6 100.8 5.8 37.8 6.2 108.2 0.8 144-4.8 31.2-15.6 74.4-25.6 102-10.8 29.8-32.4 73.4-49.6 99.6-7.6 11.8-14 22.2-14 23s21.4 22.8 47.4 48.8l47.6 47.6h-123v123l-47.6-47.6c-26-26-48-47.4-48.8-47.4s-8 4.4-16 9.8c-94.6 63.2-212.8 92.8-326.6 82zM578 895c57.8-9 122.4-33.2 168.8-63l15.8-10.2-43.2-43.4-43.4-43.4-19.4 9.4c-72.6 35.6-158 43-236.2 20.4-111-32.2-198.4-121.6-227.2-233.2-8.2-31.4-10.2-47-10.2-83.6s2-52.2 10.2-83.6c32.2-124.4 133.8-217.8 263.4-241.8 23-4.2 83.4-4.8 105.4-1 71.4 12.6 131.8 43 180.8 91.4 101.4 100 127.8 252.8 65.6 379.6l-9.4 19.4 43.4 43.4 43.4 43.2 10-15.8c30.8-47.8 54.2-110.8 63.6-171 4.8-31.6 4.8-98.2-0.2-128.8-8-50.2-20-88.8-41.2-132.2-44.6-91.6-117-164-209-209-43.2-21-81.6-33-132-41-30.8-5-99.2-5-130 0-86.6 14-161.6 48-227 102.8-88.6 74.2-147.2 186.8-158 303.4-13.8 149.6 50.2 299.8 167.4 393.2 50.8 40.4 114 71.8 174.6 86.4 20 5 52.8 10.4 72 12.2 18.6 1.6 81.8-0.8 102-3.8zM860.6 778h18.4l-120-120h-37v37l119 119 1.2-36h18.4zM564 713c29.2-5.8 64.8-19.6 86.8-33.8l11.2-7.2v-31l-67.6-67.6-10.6 6c-46.4 26.2-105.8 24.2-151.6-4.8-14.8-9.2-36.4-30.8-46.2-45.8-31.6-48.4-31.6-114.2 0-161.8 22.6-34 57.4-57.8 96.4-65.8 49.2-10.2 99.8 5.2 135.4 41.4 27 27.4 41 58 43.6 96.2 1.8 27.2-3.4 51.4-16.8 78l-7 13.8 67.4 67.4h31l7.2-11.2c14.8-23.2 29.6-62.2 35-92.8 4-22.2 3.6-75-0.8-95.8-12.4-58-35.6-101.2-76.2-141.2-40.2-39.8-83-62.6-139.2-74.4-23.6-4.8-76.4-4.8-100 0-56.6 11.8-101 35.8-141 76.2-39.6 40-62.6 83-74.4 139.2-4.8 23.6-4.8 76.4 0 100 7.8 37 22 71.2 42.4 102 12.8 19.2 51.8 58.2 71 71 37 24.6 79.6 40.2 124 45.8 13.4 1.6 65.2-0.8 80-3.8zM530 536c5-1.2 11.6-3.2 14.6-4.4l5.8-2.2-29.2-29.2c-16-16.2-29.2-30.2-29.2-31.2 0-2.6 38.4-41 41-41 1.2 0 15 13 31 29 33 33.2 31.6 33 36.4 5.2 6.4-37-12.8-75.4-46.2-93-36-18.8-76.8-12.8-105.4 15.8-49.4 49.2-26 133.2 42.2 150.2 12.4 3 27.2 3.4 39 0.8z" />
<glyph unicode="&#xe923;" glyph-name="task" d="M339 956.2c-18-8.2-23-19.6-23-51v-22.8l-57.4-0.8c-47.6-0.8-59.6-1.6-68.4-4.4-34.8-11.2-60.4-38.4-69-73.4-2.8-11.8-3.2-50.4-3.2-396 0-332.8 0.4-384.4 3-394.4 9.6-37 37.4-64.8 74.4-74.4 9.8-2.6 52.8-3 316.4-3 273.8 0 306.2 0.4 318 3.2 35 8.6 61.4 33.4 73.4 68.8 3.6 10.6 3.8 25.2 3.8 399 0 422.4 0.8 395.2-11.2 419.4-7.4 14.6-24.8 33.4-37.6 40.2-24.4 13.4-28 14-90.6 15l-57.2 0.8-0.8 25.4c-0.6 22.4-1.2 26-5.4 32.8-2.6 4.2-8.4 10-12.8 13l-8.2 5.4-168 0.4c-160.2 0.6-168.6 0.4-176.2-3.2zM630 841v-39h-234v78h234v-39zM316 774.8c1-24.2 1.4-26.6 6.6-34.4 3-4.6 9.2-10.4 14-12.8l8.4-4.6 161-0.6c88.6-0.4 164.8 0 169.2 0.6 12.4 1.8 24.2 10.4 29.8 21.8 4.4 9 5 12.4 5 33.8v23.6l51.6-0.6c58.2-0.6 60.4-1.2 64.2-15 1.6-5.2 2.2-127.2 2.2-379.6 0-350.2-0.2-372.4-3.6-379-1.8-3.8-5.6-8-8.4-9.4-4-2-67.8-2.4-305.4-2l-300.6 0.4-5.4 5.6-5.6 5.4v380.8c0 372.6 0 380.8 3.8 385 2.2 2.4 6.6 5 10 6s27.8 1.8 54.2 1.6l48-0.4 1-26.2zM654 500.8c-4.4-1.8-41.6-37.4-100.4-96.4l-93.6-93.4-40.4 40.4c-22.4 22-43.6 41.6-47.4 43.6-9.8 5-29.4 3.4-38.6-2.8-10.4-7.2-16.2-16.8-17.2-29.2-1.6-19.8-0.6-21.2 59.4-81.6 30.4-30.6 58.8-57.8 63.2-60.4 10.6-6.2 20.4-7.8 31.2-5 8 2 19.8 13.2 120.6 113.6 75.4 75.4 112.8 114 115.4 119.4 9.2 20 0 43.2-20.6 52-9.4 3.8-22.4 3.8-31.6-0.2z" />
<glyph unicode="&#xe924;" glyph-name="calendar" d="M263 957.6c-9.8-3.4-18.4-11-22.8-20.2-3.6-7.2-4.2-12.4-4.2-31.8v-23l-31.6-1.2c-43.8-1.8-66.4-7-97-22.6-50.4-25.6-86.6-71.4-102-129.6l-4.4-16.2v-608l4.6-17.8c4.8-19.4 18.2-49.2 28.4-64.2 9.2-13.2 30.8-35.8 44.4-46.4 25.6-19.6 61.4-34.4 93.8-38.6 11.8-1.6 117.2-2 350.8-1.6l334 0.6 15.4 4.4c35.8 10.2 62.4 24.6 85.8 46.2 34.8 32.4 55 68.8 62.8 113.6 4.6 26.2 4.6 589.6 0 615.8-7.2 40.8-25.4 75.4-56 106-42 42-87 58.8-158.2 59h-18.4l-0.6 25.8c-0.8 25-1 26.2-6.8 34.4-17.4 24.6-53.6 22.6-67.4-4-5.2-9.8-5.6-12.4-5.6-33.4v-22.8h-392v22.8c0 21-0.4 23.6-5.6 33.4-9 17.4-29.4 25.6-47.4 19.4zM236 759c0-46 1-52.4 10.6-62.6 20.4-22 59.4-13.2 67.4 15.2 1 4 2 26 2 49v41.4h392v-41.4c0-23 1-45 2-49 8-28.4 47-37.2 67.4-15.2 9.6 10.2 10.6 16.6 10.6 62.8v43.4l28.6-1.2c15.8-0.6 33.6-2.6 40.2-4.4 31.8-8.6 60.4-32.4 75.2-62.4 8.6-18 12-35.2 12-64v-24.6h-864v24.6c0 28.8 3.4 46 12 64 17.6 35.6 50.6 59.4 91 65.4 5.4 0.8 19.6 1.6 31.6 1.8l21.4 0.2v-43zM944 343.4c0-216.4-0.2-223.2-4-238.4-10-38.8-39.8-70.6-78.2-83.2l-14.8-4.8h-670l-14.8 4.8c-17.8 5.8-40.8 20.8-52.2 33.8-12 13.4-21.4 31.4-26 49.4-3.8 15.2-4 22.2-4 238.4v222.6h864v-222.6zM221 444.2c-13.6-6-25-22.6-25-36.2s11.4-30.2 25-36.2c7-3.2 13.8-3.8 54.6-3.8 51.4 0 55.8 0.8 68 12.6 4 4 7.8 10.4 9.6 16.8 2.8 9.6 2.8 11.6 0 21.2-1.8 6.4-5.6 12.8-9.6 16.8-12.2 11.8-16.6 12.6-68 12.6-40.8 0-47.6-0.6-54.6-3.8zM454.4 442.8c-23.2-11.4-28.8-40.8-11.8-60.2 12-13.6 16.4-14.6 69.4-14.6 52 0 57 1 68.8 13.6 17.6 18.8 10.6 51.4-13.8 62.6-7 3.2-13.6 3.8-55.2 3.8-46.6 0-47 0-57.4-5.2zM694 444.8c-33.2-14.4-33-59.8 0.4-73.6 6-2.6 16.4-3.2 54-3.2 40.8 0 47.6 0.6 54.6 3.8 13.6 6 25 22.6 25 36.2s-11.4 30.2-25 36.2c-7 3.2-13.8 3.8-55 3.6-37.6 0-48.4-0.6-54-3zM218.4 206.8c-23.2-11.4-28.8-40.8-11.8-60.2 11.8-13.6 16.6-14.6 69-14.6 37.6 0 48 0.6 54 3.2 27.2 11.2 34 45.4 13 65.2-11.2 10.8-16.4 11.6-67.2 11.6-46.2 0-46.8 0-57-5.2zM459 209.4c-14.2-5.6-23.2-16.4-26-31.6-3-15.8 7.8-34.8 24-42 7-3.2 13.8-3.8 55-3.8 53.2 0 58 1.2 69.6 15 16.6 20.2 9.4 50-14.6 61.2-7 3.2-13.4 3.6-55 3.6-31 0-49-1-53-2.4zM694 208.8c-33.2-14.4-33-59.8 0.4-73.6 6-2.6 16.4-3.2 54-3.2 52.4 0 57.2 1 69 14.6 17.2 19.6 11.2 48.8-12.2 60.4-9.8 4.8-11 5-57 5-37.6-0.2-48.6-0.8-54.2-3.2z" />
<glyph unicode="&#xe925;" glyph-name="send" d="M106.6 902.4c-30.6-11-50.4-37-52.2-68.8-0.8-14.8 0.8-22.2 39.6-178 22.4-89.4 41.2-163.2 41.8-164 0.6-0.6 102.2-10.4 225.8-21.8 123.4-11.4 224.4-21.2 224.4-21.8s-101-10.4-224.4-21.8c-123.6-11.4-225.2-21.2-225.8-21.8-0.6-0.8-19.4-74.6-41.8-164-38.8-155.8-40.4-163.2-39.6-178 1.2-20.2 7.8-34.8 22.4-49.6 6.4-6.2 16.2-13.4 22.6-16.4 10.4-4.8 14-5.4 33-5.4h21.6l391.2 195.6c430.6 215.4 404.4 201 417.4 227.2 6 12.2 6.4 14.4 6.4 34.2s-0.4 22-6.4 34.2c-13 26.2 13.2 11.8-417.2 227.2l-391 195.4-18.8 0.6c-14.2 0.6-21-0.2-29-3z" />
<glyph unicode="&#xe926;" glyph-name="chat" d="M131 920c-63.8-7-114.8-53.6-128-117-4.4-21-4.4-529 0-550 9.8-47 40.6-85.4 83.8-105 21.4-9.8 34.8-12 77.8-13.4l39.4-1.2v-64.2c0-36 0.8-67.4 2-71.2 1-4 5-10.2 9-14 9.2-9 25-10.8 36-4.2 4 2.4 50.6 37.8 103.6 78.8l96.4 74.4 224 1.2c246.8 1.2 232.8 0.4 262.2 13.8 43.2 19.6 74 58 83.8 105 4.4 21 4.4 529 0 550-11.8 56-52.8 99-109.6 114.4-11.4 3.2-41.4 3.4-389.4 3.8-207.4 0.2-383.2-0.4-391-1.2zM908.4 852.4c22-9 38.2-25.8 48-50.2l4.6-11.2v-526l-4.6-11.2c-9.8-24.4-26-41.2-48-50.2l-11.4-4.6-231-1c-210-1-231.6-1.4-237-4.4-3.2-1.8-41-30.4-84-63.4l-78-60.4-1 52.6c-1.2 58.8-1.8 62.2-16 70.6-6.4 3.6-11.4 4-65 5-54.2 1-58.8 1.4-69.4 5.6-22 8.8-38.2 25.8-48 50.2l-4.6 11.2-0.6 252.8c-0.2 152.6 0.2 258.4 1.4 266.6 2.6 18.8 11.8 37.4 24.2 49.6 11.6 11.2 18 15 34 20.2 10.4 3.4 31.6 3.6 393 3.2l382-0.4 11.4-4.6z" />
<glyph unicode="&#xe927;" glyph-name="camera" d="M756.096 832l-60.288 78.165c-23.728 30.328-60.276 49.681-101.351 49.835h-164.889c-41.1-0.154-77.648-19.507-101.163-49.552l-0.213-0.283-60.288-78.165zM682.667 362.667c0-94.257-76.41-170.667-170.667-170.667s-170.667 76.41-170.667 170.667c0 94.257 76.41 170.667 170.667 170.667s170.667-76.41 170.667-170.667zM810.667 746.667h-597.333c-117.762-0.146-213.188-95.571-213.333-213.319v-384.014c0.146-117.762 95.571-213.188 213.319-213.333h597.348c117.762 0.146 213.188 95.571 213.333 213.319v384.014c-0.146 117.762-95.571 213.188-213.319 213.333h-0.014zM512 106.667c-141.385 0-256 114.615-256 256s114.615 256 256 256c141.385 0 256-114.615 256-256v0c-0.146-141.326-114.674-255.854-255.986-256h-0.014z" />
<glyph unicode="&#xe928;" glyph-name="lock" d="M810.666 600.576v60.758c0 164.948-133.716 298.666-298.666 298.666s-298.666-133.718-298.666-298.666v-60.758c-77.652-33.89-127.888-110.518-128-195.242v-256c0.14-117.762 95.57-213.194 213.332-213.334h426.666c117.762 0.14 213.192 95.572 213.334 213.334v256c-0.11 84.724-50.348 161.352-128 195.242zM554.666 234.666c0-23.564-19.102-42.666-42.666-42.666s-42.666 19.102-42.666 42.666v85.334c0 23.564 19.102 42.666 42.666 42.666s42.666-19.102 42.666-42.666v-85.334zM725.334 618.666h-426.668v42.666c0 117.82 95.512 213.334 213.334 213.334s213.334-95.512 213.334-213.334v-42.666z" />
<glyph unicode="&#xe929;" glyph-name="language" d="M474 958.8c-3.8-0.4-15.6-1.8-26-3-158.2-18-304.4-117.2-384.8-261-29.2-52.4-50.4-117.4-59.4-182.8-4-28.6-3.6-105.4 0.8-134 18-117.2 66.2-213 147.6-293.4 12.6-12.4 31-29 40.8-37 128.2-102.4 298.8-136.8 458-92.2 185.8 52 329.2 208.6 363.8 397.4 31.2 169-20.6 336.4-141 457-79.8 79.6-175.8 127.8-289.8 145.2-20 3-94.4 5.6-110 3.8zM482 803.4v-92.6l-14.4 0.8c-39 1.8-122.2 12.6-126.2 16.4-2.2 2 12 33.6 27 60.2 28.6 50.8 65 87.8 101.4 103 6.2 2.6 11.4 4.6 11.8 4.8 0.2 0 0.4-41.6 0.4-92.6zM575 880.4c26-15.6 61.6-57.2 84.6-98.8 10.6-19.2 24.8-52 23-53.6-4-3.8-87.2-14.6-126-16.4l-14.6-0.8v185.2l10.6-4.2c5.6-2.2 15.8-7.4 22.4-11.4zM347.2 865.6c-23.6-33-41.8-65-56.2-98.6-5-12-9.6-22.6-10.2-23.4-1.8-2.8-80.8 27-80.8 30.6 0 1.6 30.8 28 46 39.2 23.2 17.4 63.4 40 91.8 51.8 13.8 5.8 13.4 5.8 9.4 0.4zM714 852.2c35.2-17.6 66.8-39 97.6-65.8 6.8-6 12.4-11.6 12.4-12.4 0-2-35.4-16.8-60.6-25.2l-19.6-6.6-4.2 9.4c-19.8 46-35.6 75.6-53.4 100.2-5 7.2-10 14.2-10.8 15.6-2.2 3.4 13.8-2.8 38.6-15.2zM211 703.4c15.4-6 33.2-12.6 39.6-14.4 9.2-2.6 11.4-4 10.4-6.8-0.6-1.8-4.2-16.8-8-33.2-10.8-46-21-122.6-21-158.4v-12.6h-170.6l1.4 17.4c5.2 69.6 36.2 151.6 80.8 214.6l12.8 17.8 13.2-6.6c7.4-3.8 26-11.8 41.4-17.8zM888.2 698.2c38.2-56.6 68.2-139.6 73-202.8l1.4-17.4h-170l-1.4 27c-2.4 47.8-11.4 108.6-23 156-3.2 13.2-5.8 24-5.6 24.2 0.2 0 11.4 4 25 8.6 23 8 59.4 23.2 73.4 30.8 7.2 3.8 6 4.8 27.2-26.4zM360 663.2c34-6 82-11.2 101.8-11.2 22.4 0 20.2 9.6 20.2-88.2v-85.8h-190v11.6c0 39.6 13.2 128.2 25.4 170 2.8 10.2 3.4 10.8 8.2 9.6 3-0.6 18.4-3.4 34.4-6zM706.6 659.6c12.8-45 25.4-130 25.4-170v-11.6h-190v85.8c0 97.4-2 88.2 18.6 88.2 25.2 0 96.8 8.4 126.4 15 6.6 1.4 13 2.6 14.4 2.8 1.2 0.2 3.6-4.6 5.2-10.2zM232 405.6c0-36 10.2-112.6 21-158.6 3.8-16.4 7.4-31.4 8-33.2 1-2.8-1.2-4.2-10.4-6.8-15.8-4.6-64.6-24-81-32.2l-13.2-6.6-12.8 17.8c-44 62.4-75.6 145.8-80.8 214.6l-1.4 17.4h170.6v-12.4zM482 332.2v-85.8l-4.4-1.2c-2.6-0.6-10.2-1.2-17.2-1.2-24.4 0-111-11-135.8-17.2-3.6-1-4.6 0.2-7.4 9.6-12 41.8-25.2 130.4-25.2 170v11.6h190v-85.8zM732 406.4c0-40-12.6-125-25.4-170-2.8-10-3.4-10.6-8.2-9.4-24.4 6-110.4 17-134.8 17-7 0-14.6 0.6-17 1.2l-4.6 1.2v171.6h190v-11.6zM961.2 400.6c-5.2-69.4-37.8-154.6-82.6-216.8l-11-15.4-22.4 10.6c-20.8 9.8-64.8 26.8-77.8 30-3.8 1-5.2 2.4-4.6 4.8 0.6 1.8 3.8 14.4 7 28.2 11 46.4 19.2 102.6 21.4 149l1.4 27h170l-1.4-17.4zM482 93v-93l-10.4 4.2c-37.2 14.6-76.8 55.4-107.2 110.2-10.6 19.2-24.8 52-23 53.6 3.6 3.6 74.4 13.4 112.8 15.8 13.6 1 25.4 1.8 26.4 2 0.8 0 1.4-41.6 1.4-92.8zM575.4 183c32.8-1.6 103.4-11.4 107.2-15 1.8-1.6-12.4-34.4-23-53.6-15.6-28-33.2-52.2-52.6-71.6-20.4-20.4-35.6-31.2-54.4-38.6l-10.6-4.2v186l5.6-1c3-0.4 15.4-1.4 27.8-2zM284.4 144.6c19.8-46.2 35.6-75.8 53.4-100.4 13.6-19.2 13.6-18.8 1.8-14-26.4 10.4-70 34.8-93.6 52.4-15 11.2-46 37.6-46 39.2 0 2.2 70.2 30.6 79.6 32 0.4 0.2 2.4-4 4.8-9.2zM803.6 132c11.2-4.6 20.4-9.2 20.4-10 0-2-21-20.2-39.8-34.8-26.6-20.4-70.4-45.6-99.8-57-11.8-4.8-12-5.2 1.8 14 17.8 24.6 33.6 54.2 53.4 100.2l4.2 9.4 19.6-6.6c10.8-3.6 28.8-10.4 40.2-15.2z" />
<glyph unicode="&#xe92a;" glyph-name="invite" d="M984 207.6c0-18-14.4-32.4-32.4-32.4h-117.2v-116.8c0-18-14.4-32.4-32.4-32.4s-32.4 14.4-32.4 32.4v116.8h-117.2c-18 0-32.4 14.4-32.4 32.4s14.4 32.4 32.4 32.4h117.2v117.2c0 18 14.4 32.4 32.4 32.4s32.4-14.4 32.4-32.4v-116.8h116.8c18.4-0.8 32.8-15.2 32.8-32.8zM787.6 635.2c0-86.8-42-169.6-112.4-221.2-11.6-8.4-23.2-15.6-34.4-21.6-39.2-20.8-83.6-31.6-128-31.6-41.6 0-81.2 9.2-118.4 26.8l-2.4 1.2-2.4-0.8c-171.6-50.4-282.4-186.8-282.4-348v-20.8c-0.4-18.4-15.6-32.8-34-32.8-18.8 0-34 15.2-34 34 0 0.8 0 20 0 20 0 170.4 105.2 320.8 275.2 392.8l8.8 3.6-6.4 6.8c-50.8 52-78.8 120-78.8 192 0 151.6 123.2 274.8 274.8 274.8 151.6-0.8 274.8-124 274.8-275.2zM720.4 635.2c0 114.4-92.8 207.2-207.2 207.2-114 0-207.2-92.8-207.2-207.2 0-72.8 39.2-141.2 102.4-178.4 12.4-7.6 26-13.6 40.4-18.4 20.8-6.8 42.4-10.4 64.4-10.4s43.6 3.6 64.4 10.4c13.6 4.4 27.2 10.8 40.4 18.4 63.2 37.2 102.4 105.6 102.4 178.4z" />
<glyph unicode="&#xe92b;" glyph-name="copy" d="M324.4 957.8c-9.4-2.8-21.8-15.8-24.6-26.2-4.6-17.8 2.4-36.4 17.6-45.8l7.6-4.8 476.2-2 15.2-7.4c18.2-9 29.4-20.6 38.2-39.2l6.4-13.4 2-636 4.8-7.6c2.6-4.2 8.4-10 12.8-13 6.8-4.6 10.4-5.4 21.4-5.4s14.6 0.8 21.4 5.4c4.4 3 10.2 8.8 12.8 13l4.8 7.6v321c0 293.6-0.2 322-3.4 333-8.6 31.4-21.8 54.6-42.6 75.6-13.6 14-36.8 29.6-52.6 35.4-31.2 11.8-12.2 11-272.4 11.4-148 0.2-241.6-0.4-245.6-1.6zM210 795c-67.4-13.8-117.4-65.8-127.8-133-1.8-11-2.2-90.4-1.8-304 0.6-315-0.2-291 11.6-322.4 13.2-35.4 52.2-74.4 87.6-87.6 30.8-11.6 16.4-11 251.4-11s220.6-0.6 251.4 11c35.6 13.2 74.4 52 87.6 87.6 11.8 31.2 11 8.6 11 331.4 0 270.2-0.2 297-3.4 308-8.6 31.4-21.8 54.6-42.6 75.6-13.6 14-36.8 29.6-52.6 35.4-31 11.6-14.8 11-246.4 11.4-170.2 0.2-215.6-0.2-226-2.4zM654.4 710.6c18.6-8.8 30.2-20 39.2-38.2l7.4-15.2v-580.4l-7.4-15.2c-9-18.2-20.6-29.4-39.2-38.2l-13.4-6.4h-420l-13.4 6.4c-18.6 8.8-30.2 20-39.2 38.2l-7.4 15.2v580.2l6.4 13.4c3.4 7.4 10 17.4 14.4 22.2 8.8 9.6 27 20.2 39.4 23.2 4.6 1 93.6 1.8 213.8 1.6l206-0.4 13.4-6.4z" />
<glyph unicode="&#xe92c;" glyph-name="link" d="M607.8 956.8c-12.8-3.8-28.2-18-33.8-31.2-9.6-22.6-4-48 14.4-64.6 16.8-15.2 15.8-15 135.4-15h105.2l-238.4-238.4c-263.6-263.8-248.6-247.2-248.6-273.6 0-41.2 42.6-68.2 80-50.8 9.6 4.4 42.6 36.4 249.6 243.4l238.4 238.4v-105.2c0-119.6-0.2-118.6 15-135.4 23-25.6 61-25.4 84 0 15.8 17.6 15.2 7.2 14.6 212.8l-0.6 181.8-4.4 8.2c-6.8 12.6-13.2 19.4-25 25.8l-10.6 6-183 0.4c-154.4 0.4-184.4 0-192.2-2.6zM141 843.8c-53.4-10-99-44.2-123.6-93.2-3-5.6-7.8-18.2-10.8-28l-5.6-17.6-0.6-305c-0.4-209 0.2-309.4 1.6-318.8 5.8-37.4 20.6-65.8 49-94.2s56.8-43.2 94.2-49c9.4-1.4 109.8-2 318.8-1.6l305 0.6 17.6 5.6c65 20.2 109.6 70.6 121.2 136.2 1.4 7.6 2.2 58.8 2.2 138.4 0 121.6-0.2 127-4 137.2-8 21.4-29.8 36.2-53.2 36-22-0.2-39.6-11-50.4-31.4l-5.4-10-2-258-4.6-9.4c-2.6-5.2-8.8-13-13.6-17.4-17.4-15.2 6.6-14.2-320.8-14.2-332.8 0-306.2-1.4-324.6 16.6-19 18.4-17.4-10.6-17.4 324.4 0 328.4-1 304.4 14.2 321.8 4.4 4.8 12.2 11 17.4 13.6l9.4 4.6 256 2 10.4 4.8c27.6 12.4 40.8 46.2 28.8 73.4-6 13.6-18.8 26-31.8 30.8-10.2 3.8-15.4 4-139 3.8-70.6-0.2-132.8-1-138.4-2z" />
</font>
</defs>
</svg>
